<svg xmlns="http://www.w3.org/2000/svg" width="48.783" height="40.869" viewBox="0 0 48.783 40.869">
  <g id="Group_96" data-name="Group 96" transform="translate(-353.123 -4070.191)">
    <g id="Group_95" data-name="Group 95">
      <path id="Path_64" data-name="Path 64" d="M364.684,4100.235c-6.744-4.818-11.561-9.8-11.561-16.719,0-7.6,4.307-11.959,11.165-11.959,6.177,0,9.465,2.89,11.278,8.9h.453c1.757-6.008,5.1-8.9,11.336-8.9,6.744,0,11.108,4.364,11.108,11.959,0,6.914-4.818,11.9-11.505,16.719-4.7,3.4-8.615,6.461-10.995,10.825h-.227C373.242,4106.7,369.332,4103.635,364.684,4100.235Zm11.335,1.246a32.145,32.145,0,0,1,7.425-6.291c4.931-3.117,7.991-6.517,7.991-10.881,0-3.967-1.927-6.518-6.121-6.518-4.591,0-7.368,3.967-8.444,9.635h-1.644c-1.133-5.724-3.854-9.635-8.5-9.635-4.194,0-6.065,2.551-6.065,6.518,0,4.364,3,7.764,7.992,10.881A30.712,30.712,0,0,1,376.019,4101.481Z" fill="#fff"/>
    </g>
    <path id="Path_65" data-name="Path 65" d="M401.906,4076.685a8.4,8.4,0,0,1-6.528-6.494h-.242a8.353,8.353,0,0,1-6.528,6.494v.276a8.448,8.448,0,0,1,6.528,6.494h.242a8.446,8.446,0,0,1,6.528-6.494Z" fill="#e181dc"/>
  </g>
</svg>
