<svg xmlns="http://www.w3.org/2000/svg" width="72.4" height="60.735" viewBox="0 0 72.4 60.735">
  <g id="Group_104" data-name="Group 104" transform="translate(-182.827 -3591.033)">
    <g id="Group_103" data-name="Group 103">
      <path id="Path_71" data-name="Path 71" d="M199.868,3635.813c-9.941-7.1-17.041-14.451-17.041-24.642,0-11.193,6.348-17.625,16.456-17.625,9.1,0,13.95,4.26,16.623,13.114h.668c2.59-8.854,7.518-13.114,16.707-13.114,9.94,0,16.372,6.432,16.372,17.625,0,10.191-7.1,17.542-16.957,24.642-6.933,5.012-12.7,9.523-16.206,15.955h-.334C212.481,3645.336,206.717,3640.825,199.868,3635.813Zm16.706,1.838a47.317,47.317,0,0,1,10.943-9.272c7.267-4.595,11.778-9.606,11.778-16.039,0-5.847-2.84-9.606-9.022-9.606-6.766,0-10.859,5.847-12.446,14.2H215.4c-1.67-8.437-5.68-14.2-12.53-14.2-6.181,0-8.937,3.759-8.937,9.606,0,6.433,4.427,11.444,11.778,16.039A45.227,45.227,0,0,1,216.574,3637.651Z" fill="#e181dc"/>
    </g>
    <path id="Path_72" data-name="Path 72" d="M254.727,3601.1c-5.243-1.426-8.145-4.277-9.621-9.571h-.356c-1.426,5.294-4.378,8.145-9.622,9.571v.407c5.244,1.476,8.2,4.327,9.622,9.571h.356c1.476-5.244,4.378-8.146,9.621-9.571Z" fill="#fff" stroke="#e181dc" stroke-miterlimit="10" stroke-width="1"/>
  </g>
</svg>
