<svg xmlns="http://www.w3.org/2000/svg" xmlns:xlink="http://www.w3.org/1999/xlink" width="600.811" height="963.528" viewBox="0 0 650.811 963.528">
  <defs>
    <linearGradient id="linear-gradient-2" y1="0.5" x2="1" y2="0.5" gradientUnits="objectBoundingBox">
      <stop offset="0" stop-color="#f3b277"/>
      <stop offset="1" stop-color="#e181dc"/>
    </linearGradient>
  </defs>
  <g id="Layer_1" data-name="Layer 1" transform="translate(-396.702 -3281.458)">
   <g id="Group_80" data-name="Group 80">
      <g id="Group_79" data-name="Group 79">
        <path id="Path_49" data-name="Path 49" d="M578.877,3946.153c-22.439-16.028-38.468-32.623-38.468-55.627,0-25.269,14.331-39.788,37.148-39.788,20.554,0,31.491,9.616,37.525,29.6h1.508c5.846-19.989,16.971-29.6,37.713-29.6,22.44,0,36.959,14.519,36.959,39.788,0,23-16.028,39.6-38.278,55.627-15.652,11.314-28.663,21.5-36.583,36.016h-.754C607.351,3967.649,594.339,3957.467,578.877,3946.153Zm37.713,4.148c6.411-7.731,15.651-15.273,24.7-20.931,16.406-10.371,26.588-21.685,26.588-36.205,0-13.2-6.411-21.684-20.365-21.684-15.274,0-24.514,13.2-28.1,32.055H613.95c-3.771-19.045-12.823-32.055-28.285-32.055-13.954,0-20.177,8.485-20.177,21.684,0,14.52,9.995,25.834,26.588,36.205C601.127,3935.028,610.367,3942.57,616.59,3950.3Z" fill="url(#linear-gradient-2)"/>
      </g>
      <path id="Path_50" data-name="Path 50" d="M702.717,3867.8c-11.836-3.218-18.387-9.653-21.72-21.6h-.8c-3.218,11.951-9.883,18.386-21.719,21.6v.919c11.836,3.333,18.5,9.768,21.719,21.606h.8c3.333-11.838,9.884-18.388,21.72-21.606Z" fill="#fff"/>
    </g>
    <g id="Group_82" data-name="Group 82">
      <g id="Group_81" data-name="Group 81">
        <path id="Path_51" data-name="Path 51" d="M798.266,3845.629c-15.563-11.116-26.68-22.626-26.68-38.582,0-17.525,9.94-27.6,25.765-27.6,14.256,0,21.841,6.67,26.027,20.534h1.046c4.054-13.864,11.771-20.534,26.157-20.534,15.564,0,25.634,10.071,25.634,27.6,0,15.956-11.117,27.466-26.549,38.582-10.856,7.848-19.88,14.91-25.373,24.981h-.523C818.015,3860.539,808.991,3853.477,798.266,3845.629Zm26.158,2.877a74.11,74.11,0,0,1,17.133-14.517c11.378-7.193,18.441-15.04,18.441-25.111,0-9.155-4.447-15.04-14.125-15.04-10.594,0-17,9.154-19.487,22.233h-3.793c-2.616-13.209-8.894-22.233-19.619-22.233-9.678,0-13.994,5.885-13.994,15.04,0,10.071,6.932,17.918,18.441,25.111A70.8,70.8,0,0,1,824.424,3848.506Z" fill="url(#linear-gradient-2)"/>
      </g>
      <path id="Path_52" data-name="Path 52" d="M884.16,3791.284c-8.21-2.231-12.753-6.695-15.064-14.984h-.558c-2.232,8.289-6.855,12.753-15.064,14.984v.638c8.209,2.312,12.832,6.775,15.064,14.985h.558c2.311-8.21,6.854-12.753,15.064-14.985Z" fill="#fff"/>
    </g>
    <g id="Group_84" data-name="Group 84">
      <g id="Group_83" data-name="Group 83">
        <path id="Path_53" data-name="Path 53" d="M603.586,3582.319c-10.529-7.52-18.049-15.307-18.049-26.1,0-11.856,6.724-18.668,17.43-18.668,9.644,0,14.775,4.512,17.607,13.891h.707c2.743-9.379,7.963-13.891,17.7-13.891,10.528,0,17.341,6.812,17.341,18.668,0,10.794-7.521,18.581-17.961,26.1-7.343,5.309-13.448,10.086-17.164,16.9h-.354C616.946,3592.405,610.841,3587.628,603.586,3582.319Zm17.7,1.946a50.173,50.173,0,0,1,11.591-9.821c7.7-4.866,12.475-10.174,12.475-16.987,0-6.193-3.008-10.175-9.556-10.175-7.166,0-11.5,6.193-13.182,15.041h-2.566c-1.77-8.936-6.017-15.041-13.272-15.041-6.547,0-9.467,3.982-9.467,10.175,0,6.813,4.69,12.121,12.475,16.987A47.9,47.9,0,0,1,621.281,3584.265Z" fill="url(#linear-gradient-2)"/>
      </g>
      <path id="Path_54" data-name="Path 54" d="M666.7,3612.34c-5.554-1.51-8.627-4.53-10.191-10.137h-.377c-1.51,5.607-4.638,8.627-10.192,10.137v.431c5.554,1.564,8.682,4.583,10.192,10.137h.377c1.564-5.554,4.637-8.627,10.191-10.137Z" fill="url(#linear-gradient-2)"/>
    </g>
    <text id="Crush_" data-name="Crush!" transform="translate(396.702 3644.852)" fill="#fff" font-size="72" font-family="Helvetica"><tspan x="207.227" y="55">Crush!</tspan></text>
    <g id="Group_86" data-name="Group 86">
      <g id="Group_85" data-name="Group 85">
        <path id="Path_55" data-name="Path 55" d="M762.643,3531.817c-22.44-16.027-38.468-32.622-38.468-55.626,0-25.269,14.331-39.788,37.147-39.788,20.554,0,31.491,9.616,37.525,29.6h1.508c5.846-19.989,16.972-29.6,37.714-29.6,22.439,0,36.959,14.519,36.959,39.788,0,23-16.028,39.6-38.279,55.626-15.651,11.315-28.662,21.5-36.582,36.017h-.754C791.116,3553.313,778.1,3543.132,762.643,3531.817Zm37.712,4.148c6.412-7.73,15.651-15.273,24.7-20.93,16.405-10.372,26.588-21.685,26.588-36.2,0-13.2-6.412-21.685-20.366-21.685-15.274,0-24.513,13.2-28.1,32.056h-5.469c-3.771-19.045-12.822-32.056-28.285-32.056-13.953,0-20.176,8.486-20.176,21.685,0,14.52,9.994,25.833,26.588,36.2C784.893,3520.692,794.133,3528.235,800.355,3535.965Z" fill="url(#linear-gradient-2)"/>
      </g>
      <path id="Path_56" data-name="Path 56" d="M886.483,3453.464c-11.837-3.218-18.387-9.653-21.72-21.605h-.8c-3.218,11.952-9.883,18.387-21.72,21.605v.919c11.837,3.333,18.5,9.768,21.72,21.6h.8c3.333-11.837,9.883-18.387,21.72-21.6Z" fill="#fff"/>
    </g>
    <path id="Path_57" data-name="Path 57" d="M759.634,3890.108c-5.554-1.51-8.628-4.53-10.191-10.137h-.378c-1.51,5.607-4.637,8.627-10.191,10.137v.431c5.554,1.564,8.681,4.583,10.191,10.137h.378c1.563-5.554,4.637-8.627,10.191-10.137Z" fill="url(#linear-gradient-2)"/>
    <path id="Path_58" data-name="Path 58" d="M690.975,3584.049c-5.554-1.51-8.627-4.529-10.191-10.137h-.377c-1.51,5.608-4.637,8.627-10.191,10.137v.431c5.554,1.564,8.681,4.584,10.191,10.138h.377c1.564-5.554,4.637-8.628,10.191-10.138Z" fill="url(#linear-gradient-2)"/>
  </g>
</svg>
