<svg xmlns="http://www.w3.org/2000/svg" width="301.483" height="146.784" viewBox="0 0 301.483 146.784">
  <g id="Group_643" data-name="Group 643" transform="translate(-3584.593 -299.01)">
    <path id="Path_379" data-name="Path 379" d="M3864.341,299.01H3606.425a21.757,21.757,0,0,0-21.35,17.732,19.05,19.05,0,0,0-.482,4.2V426.794a19,19,0,0,0,19,19h263.423a19,19,0,0,0,19-19V322.118c.029-.458.049-.919.049-1.384A21.748,21.748,0,0,0,3864.341,299.01Zm18.708,0.724a20,20,0,0,1-20,20H3607.607a20,20,0,0,1-20-20h0a20,20,0,0,1,20-22h255.444a20,20,20Z" fill="#fff"/>
  </g>
</svg>
