<svg xmlns="http://www.w3.org/2000/svg" width="11.672" height="11.101" viewBox="0 0 11.672 11.101">
  <g id="Path_143" data-name="Path 143" transform="translate(-5825.882 -1792.249)" fill="none" stroke-miterlimit="10">
    <path d="M5831.718,1792.249l1.8,3.654,4.033.586-2.918,2.844.689,4.016-3.607-1.9-3.607,1.9.689-4.016-2.918-2.844,4.033-.586Z" stroke="none"/>
    <path d="M 5831.71826171875 1794.110473632812 L 5830.4619140625 1796.65625 L 5827.65234375 1797.064453125 L 5829.68505859375 1799.046264648438 L 5829.205078125 1801.844482421875 L 5831.71826171875 1800.523315429688 L 5834.2314453125 1801.844482421875 L 5833.75146484375 1799.046264648438 L 5835.7841796875 1797.064453125 L 5832.974609375 1796.65625 L 5831.71826171875 1794.110473632812 M 5831.71826171875 1792.249267578125 L 5833.521484375 1795.903442382812 L 5837.55419921875 1796.489379882812 L 5834.63623046875 1799.333740234375 L 5835.3251953125 1803.35009765625 L 5831.71826171875 1801.453857421875 L 5828.111328125 1803.35009765625 L 5828.80029296875 1799.333740234375 L 5825.88232421875 1796.489379882812 L 5829.9150390625 1795.903442382812 L 5831.71826171875 1792.249267578125 Z" stroke="none" fill="#fff"/>
  </g>
</svg>
