<svg xmlns="http://www.w3.org/2000/svg" width="27.031" height="28.495" viewBox="0 0 27.031 28.495">
  <g id="Group_499" data-name="Group 499" transform="translate(-2594.597 -1132.557)">
    <g id="Group_498" data-name="Group 498">
      <path id="Path_301" data-name="Path 301" d="M2620.093,1144.614a18.067,18.067,0,0,0-11.9,11.865h-.128a18.159,18.159,0,0,0-11.929-11.9v-.127a18.113,18.113,0,0,0,11.9-11.9h.128a18.206,18.206,0,0,0,11.929,11.93Zm-5.837-.223a7.757,7.757,0,0,1-6.029-6H2608a7.714,7.714,0,0,1-6.028,6v.255a7.8,7.8,0,0,1,6.028,6h.223a7.8,7.8,0,0,1,6.029-6Z" fill="#fff"/>
    </g>
    <path id="Path_302" data-name="Path 302" d="M2615.492,1152.547l-.507,2.646a9.876,9.876,0,0,1,3.807,1.3l-.013.011c-.053.04-.114.082-.183.125l-.038.023c-.073.043-.153.087-.243.131l-.042.02c-.095.046-.2.093-.309.14l-.03.012c-.115.048-.239.1-.372.143l-.022.008c-.133.048-.277.1-.428.143l-.06.019c-.147.046-.3.091-.466.135l-.084.023c-.164.044-.335.088-.513.13l-.094.023c-.182.042-.371.084-.568.125l-.092.018c-.205.042-.416.082-.636.121l-.061.011c-.228.039-.464.078-.708.114l-.021,0c-.244.037-.5.071-.758.1l-.088.011c-.25.03-.508.058-.771.084l-.128.013c-.261.025-.529.047-.8.068l-.142.01q-.415.029-.851.051l-.135.006c-.3.014-.6.025-.915.033h-.1c-.329.008-.664.012-1.008.012s-.678,0-1.007-.012h-.1c-.312-.008-.616-.019-.915-.033l-.135-.006q-.435-.023-.851-.051l-.141-.01c-.275-.021-.543-.043-.8-.068l-.127-.013c-.264-.026-.523-.054-.773-.084l-.086-.011c-.26-.032-.515-.066-.76-.1l-.018,0c-.246-.036-.482-.075-.711-.115l-.06-.01q-.33-.059-.637-.121l-.091-.018c-.2-.041-.386-.083-.569-.126l-.092-.021c-.179-.043-.351-.087-.515-.131l-.082-.022c-.164-.045-.321-.09-.468-.136l-.057-.018c-.152-.048-.3-.1-.431-.144l-.02-.007c-.134-.048-.259-.1-.375-.145l-.027-.011c-.114-.047-.217-.094-.312-.14l-.039-.019c-.091-.045-.172-.09-.245-.133l-.036-.022a2.141,2.141,0,0,1-.185-.126l-.012-.01a9.876,9.876,0,0,1,3.807-1.3l-.507-2.646c-4.072.78-6.136,2.1-6.136,3.936,0,4.441,12.132,4.569,13.515,4.569s13.516-.128,13.516-4.569C2621.628,1154.651,2619.564,1153.327,2615.492,1152.547Z" fill="#fff"/>
  </g>
</svg>
