<svg xmlns="http://www.w3.org/2000/svg" width="145.982" height="145.983" viewBox="0 0 145.982 145.983">
  <path id="Path_35" data-name="Path 35" d="M1219.6,3634.839a72.991,72.991,0,1,0,72.991,72.992A72.992,72.992,0,0,0,1219.6,3634.839Zm15.781,93.312c-7.37,5.328-13.5,10.123-17.228,16.962h-.355c-3.907-6.839-10.035-11.634-17.316-16.962-10.568-7.548-18.116-15.363-18.116-26.2,0-11.9,6.749-18.738,17.494-18.738,9.68,0,14.83,4.529,17.672,13.943h.71c2.753-9.414,7.993-13.943,17.761-13.943,10.568,0,17.406,6.838,17.406,18.738C1253.411,3712.788,1245.862,3720.6,1235.383,3728.151Z" transform="translate(-1146.611 -3634.839)" fill="#fff" opacity="0.9"/>
</svg>
