<svg xmlns="http://www.w3.org/2000/svg" width="226.858" height="68.799" viewBox="0 0 226.858 68.799">
  <g id="Group_684" data-name="Group 684" transform="translate(-102.37 -388.801)">
    <path id="Path_411" data-name="Path 411" d="M293.522,435c6.741.878,11.454-1.849,13.888-7.9a28.706,28.706,0,0,0,1.463-15.459,27.692,27.692,0,0,0-2.966-8.723,11.1,11.1,0,0,0-12.385-5.094ZM272.36,390.115l-.05-.254c10.5.019,22.325-.2,32.823-.028,11.551.19,20.666,7.185,23.151,17.936,2.3,9.928.285,18.865-7.36,26.074a44.792,44.792,0,0,1-4.279,3.168c5.724,5.416,11.571,10.785,12.583,19.479H309.506c.868-5.421-1.093-10.142-3.521-14.768a13.256,13.256,0,0,0-1.341-1.914l-1.9.013c-3.322.115-6.652.042-10.163.042V456.54H272.31a174,174,0,0,0,.05-66.425" fill="#fff"/>
    <path id="Path_412" data-name="Path 412" d="M123.724,419.746c0,6.623.029,13.247-.023,19.868-.011,1.271.342,1.678,1.657,1.684,5.782.015,9.648-2.57,11.951-8.206a34.531,34.531,0,0,0,2.24-13.532c-.034-4.872-.6-9.65-2.768-14.1-2.3-4.705-6.02-7.078-11.337-7-1.38.019-1.759.426-1.746,1.77.06,6.506.026,13.015.026,19.521m-21.243-29.932h0c9.632,0,20.93-.073,30.565-.092,7.086-.013,13.443,1.916,18.566,7.006,4.2,4.171,6.365,9.363,7.311,15.126A35.325,35.325,0,0,1,157.2,430.7c-3.887,10.014-12.226,15.532-23.562,15.749-3.5.065-7.011.01-10.759.01,0,2.886-.123,7.565-.016,10.25-5.594-.1-14.776-.16-20.373-.168-.5,0,.742.053,0,0a150.973,150.973,0,0,0,3.268-33.314,150.553,150.553,0,0,0-3.281-33.411" fill="#fff"/>
    <path id="Path_413" data-name="Path 413" d="M270.074,425.887v30.654h-52.02a175.266,175.266,0,0,0-.016-66.645H238.4v2.277c0,18.94.021,39.841-.039,58.779h0c1.994.092,10.189-.063,12.22-.073.285-3.762.637-10.8.449-12.829Z" fill="#fff"/>
    <path id="Path_414" data-name="Path 414" d="M196.86,424.248c-2.977,16.337-8.607,28.994-12.575,28.272s-4.771-14.554-1.793-30.891,8.61-28.994,12.578-28.27,4.768,14.552,1.79,30.889m15.446-21.513c-5.327-9.582-13.475-14.47-24.542-13.887-10.618.559-17.657,6.268-21.68,15.874-2.708,6.464-3.563,13.294-3.693,20.242a39.837,39.837,0,0,0,2.783,15.169c4.9,12.594,16.458,19.319,29.585,17.022,8.971-1.574,14.724-7.136,18.224-15.279a51.678,51.678,0,0,0,3.7-17.288c.494-7.667-.6-15.059-4.378-21.853" fill="#fff"/>
  </g>
</svg>
