<svg xmlns="http://www.w3.org/2000/svg" width="107.328" height="32.549" viewBox="0 0 107.328 32.549">
  <g id="Group_680" data-name="Group 680" transform="translate(-668.864 -35.113)">
    <path id="Path_407" data-name="Path 407" d="M759.3,56.969c3.189.416,5.419-.874,6.57-3.738a13.582,13.582,0,0,0,.693-7.314,13.077,13.077,0,0,0-1.4-4.126A5.249,5.249,0,0,0,759.3,39.38ZM749.287,35.735l-.023-.12c4.968.008,10.562-.1,15.528-.014,5.465.09,9.777,3.4,10.953,8.486,1.087,4.7.135,8.925-3.482,12.336a21.444,21.444,0,0,1-2.024,1.5c2.708,2.562,5.474,5.1,5.953,9.215h-9.331c.411-2.565-.517-4.8-1.666-6.987a6.29,6.29,0,0,0-.634-.905l-.9.006c-1.572.054-3.148.02-4.808.02v7.89h-9.589a82.3,82.3,0,0,0,.023-31.426" fill="#000"/>
    <path id="Path_408" data-name="Path 408" d="M678.967,49.753c0,3.134.014,6.268-.011,9.4-.005.6.162.794.784.8a5.586,5.586,0,0,0,5.654-3.881,16.341,16.341,0,0,0,1.06-6.4,15.13,15.13,0,0,0-1.31-6.671,5.453,5.453,0,0,0-5.363-3.313c-.653.008-.833.2-.826.837.028,3.078.012,6.157.012,9.235m-10.05-14.161h0c4.557,0,9.9-.034,14.46-.043a11.844,11.844,0,0,1,8.784,3.314,12.621,12.621,0,0,1,3.459,7.157,16.713,16.713,0,0,1-.814,8.915c-1.839,4.737-5.784,7.348-11.147,7.451-1.657.031-3.317,0-5.09,0,0,1.365-.058,3.578-.008,4.848-2.646-.048-6.99-.075-9.638-.079-.239,0,.351.025,0,0A71.46,71.46,0,0,0,670.469,51.4a71.3,71.3,0,0,0-1.552-15.807" fill="#000"/>
    <path id="Path_409" data-name="Path 409" d="M748.206,52.659v14.5H723.595a82.923,82.923,0,0,0-.008-31.53h9.634v1.077c0,8.961.01,18.849-.019,27.809h0c.944.043,4.821-.03,5.782-.035.135-1.779.3-5.111.213-6.069Z" fill="#000"/>
    <path id="Path_410" data-name="Path 410" d="M713.568,51.883c-1.409,7.729-4.072,13.717-5.95,13.376s-2.256-6.886-.848-14.615,4.074-13.717,5.951-13.374,2.256,6.884.847,14.613m7.307-10.178c-2.52-4.533-6.375-6.846-11.611-6.57-5.023.265-8.353,2.966-10.256,7.51a25.687,25.687,0,0,0-1.748,9.577,18.871,18.871,0,0,0,1.317,7.176,12.309,12.309,0,0,0,14,8.053c4.244-.744,6.966-3.376,8.622-7.228a24.47,24.47,0,0,0,1.751-8.179,18.356,18.356,0,0,0-2.072-10.339" fill="#000"/>
  </g>
</svg>
