<svg xmlns="http://www.w3.org/2000/svg" width="23.293" height="21.483" viewBox="0 0 23.293 21.483">
  <g id="Group_300" data-name="Group 300" transform="translate(-6582.782 -1790.613)">
    <path id="Path_240" data-name="Path 240" d="M6590.991,1796.265l-.038-.117h-.345l-.038.117a11.582,11.582,0,0,1-7.67,7.646l-.118.036v.35l.118.036a11.655,11.655,0,0,1,7.67,7.645l.037.118h.373l.037-.118a11.617,11.617,0,0,1,7.619-7.619l.118-.037v-.349l-.118-.037A11.758,11.758,0,0,1,6590.991,1796.265Zm-.236,11.57a3.75,3.75,0,1,1,0-7.5,3.75,3.75,0,1,1,0,7.5Z" fill="#f3b277"/>
    <path id="Path_241" data-name="Path 241" d="M6594.012,1798.124l.036.12h.376l.037-.118a5.157,5.157,0,0,1,3.409-3.461l.119-.036v-.375l-.118-.037a5.2,5.2,0,0,1-3.436-3.486l-.037-.118h-.346l-.038.115a5.19,5.19,0,0,1-3.435,3.489l-.119.036v.349l.117.037A5.169,5.169,0,0,1,6594.012,1798.124Zm.238-5.274a2.568,2.568,0,0,0,1.54,1.566,1.541,1.541,0,1,1-3.081,0A2.572,2.572,0,0,0,6594.25,1792.85Z" fill="#f3b277"/>
    <path id="Path_242" data-name="Path 242" d="M6605.957,1799.345a8.79,8.79,0,0,1-5.756-5.783l-.037-.118h-.348l-.038.117a8.634,8.634,0,0,1-5.755,5.758l-.119.036v.35l.118.036a8.656,8.656,0,0,1,5.782,5.758l.037.117h.348l.037-.117a8.539,8.539,0,0,1,5.73-5.731l.119-.037v-.349Zm-5.968,2.981a2.809,2.809,0,1,1,0-5.617,2.809,2.809,0,1,1,0,5.617Z" fill="#f3b277"/>
  </g>
</svg>
