<svg xmlns="http://www.w3.org/2000/svg" width="12.665" height="16.598" viewBox="0 0 12.665 16.598">
  <g id="Group_301" data-name="Group 301" transform="translate(-6588.555 -1835.393)">
    <path id="Path_244" data-name="Path 244" d="M6596.555,1846.106v.325H6593v-.57c0-1.654.624-2.44,2.36-3.281,1.437-.678,2.007-1.166,2.007-2.251,0-1.221-.786-1.763-2.17-1.763-2.007,0-2.766,1.247-3.037,3.282l-3.607-.516c.461-3.634,2.332-5.939,6.671-5.939,3.879,0,5.994,1.546,5.994,4.61,0,2.739-1.519,3.77-3.5,4.53A1.607,1.607,0,0,0,6596.555,1846.106Zm.217,2.006v3.879h-4.014v-3.879Z" fill="#f3b277"/>
  </g>
</svg>
