<svg xmlns="http://www.w3.org/2000/svg" width="24.102" height="17.788" viewBox="0 0 24.102 17.788">
  <g id="Group_592" data-name="Group 592" transform="translate(-789.116 -1524.41)">
    <g id="Group_590" data-name="Group 590">
      <path id="Path_338" data-name="Path 338" d="M793,1540.259h4.177a3.989,3.989,0,0,0,3.989-3.989V1527a1.564,1.564,0,0,0-1.735-1.567,1.3,1.3,0,0,0-.973.579,2.107,2.107,0,0,0-.3.8l-.638,3.8a4.7,4.7,0,0,1-.144.61l-.837,2.73a1.691,1.691,0,0,1-1.4,1.189,5.824,5.824,0,0,1-1,.033" fill="none" stroke="#e181dc" stroke-miterlimit="10" stroke-width="2.021"/>
      <path id="Path_339" data-name="Path 339" d="M809.333,1540.259h-4.178a3.989,3.989,0,0,1-3.989-3.989V1527a1.565,1.565,0,0,1,1.736-1.567,1.3,1.3,0,0,1,.973.579,2.107,2.107,0,0,1,.3.8l.638,3.8a4.537,4.537,0,0,0,.144.61l.837,2.73a1.691,1.691,0,0,0,1.4,1.189,5.835,5.835,0,0,0,1,.033" fill="none" stroke="#e181dc" stroke-miterlimit="10" stroke-width="2.021"/>
    </g>
    <g id="Group_591" data-name="Group 591">
      <rect id="Rectangle_389" data-name="Rectangle 389" width="3.725" height="7.157" transform="translate(790.126 1534.031)" fill="none" stroke="#e181dc" stroke-miterlimit="10" stroke-width="2.021"/>
      <rect id="Rectangle_390" data-name="Rectangle 390" width="3.725" height="7.157" transform="translate(808.482 1534.031)" fill="none" stroke="#e181dc" stroke-miterlimit="10" stroke-width="2.021"/>
    </g>
  </g>
</svg>
