<svg xmlns="http://www.w3.org/2000/svg" width="18.944" height="18.944" viewBox="0 0 18.944 18.944">
  <path id="Path_243" data-name="Path 243" d="M6603.08,1760.515V1757.3l-2.475-.369a7.312,7.312,0,0,0-.653-1.578l1.489-2.01-2.271-2.271-2.01,1.49a7.176,7.176,0,0,0-1.578-.653l-.368-2.476H6592l-.368,2.476a7.223,7.223,0,0,0-1.578.652l-2.01-1.489-2.271,2.271,1.489,2.01a7.241,7.241,0,0,0-.653,1.578l-2.475.369v3.211l2.475.368a7.254,7.254,0,0,0,.653,1.579l-1.489,2.009,2.271,2.271,2.009-1.489a7.253,7.253,0,0,0,1.579.653l.368,2.475h3.212l.368-2.475a7.229,7.229,0,0,0,1.578-.653l2.01,1.489,2.271-2.271-1.489-2.009a7.252,7.252,0,0,0,.653-1.579Zm-9.472,3.275a4.88,4.88,0,1,1,4.88-4.881A4.887,4.887,0,0,1,6593.608,1763.79Z" transform="translate(-6584.136 -1749.437)" fill="#f3b277"/>
</svg>
