<svg xmlns="http://www.w3.org/2000/svg" width="22.149" height="18.557" viewBox="0 0 22.149 18.557">
  <g id="Group_251" data-name="Group 251" transform="translate(-8372.325 -1385.131)">
    <g id="Group_250" data-name="Group 250">
      <path id="Path_188" data-name="Path 188" d="M8377.575,1398.773c-3.063-2.188-5.25-4.452-5.25-7.592,0-3.448,1.956-5.43,5.068-5.43,2.806,0,4.3,1.313,5.121,4.041h.206c.8-2.728,2.316-4.041,5.147-4.041,3.062,0,5.044,1.982,5.044,5.43,0,3.14-2.187,5.4-5.224,7.592-2.137,1.544-3.912,2.933-4.992,4.915h-.1C8381.46,1401.706,8379.685,1400.317,8377.575,1398.773Zm5.146.566a14.6,14.6,0,0,1,3.371-2.857c2.239-1.415,3.629-2.959,3.629-4.941,0-1.8-.875-2.959-2.778-2.959-2.085,0-3.347,1.8-3.835,4.375h-.746c-.516-2.6-1.75-4.375-3.86-4.375-1.9,0-2.754,1.158-2.754,2.959,0,1.982,1.364,3.526,3.629,4.941A13.914,13.914,0,0,1,8382.721,1399.339Z" fill="#fff"/>
    </g>
    <path id="Path_189" data-name="Path 189" d="M8394.475,1388.08a3.818,3.818,0,0,1-2.964-2.949h-.109a3.8,3.8,0,0,1-2.965,2.949v.125a3.836,3.836,0,0,1,2.965,2.949h.109a3.837,3.837,0,0,1,2.964-2.949Z" fill="#e181dc"/>
  </g>
</svg>
